<?xml version="1.0" encoding="utf-8"?>
<!-- Generator: Adobe Illustrator 28.1.0, SVG Export Plug-In . SVG Version: 6.00 Build 0)  -->
<svg version="1.1" id="Layer_1" xmlns="http://www.w3.org/2000/svg" xmlns:xlink="http://www.w3.org/1999/xlink" x="0px" y="0px"
	 viewBox="0 0 17 17" style="enable-background:new 0 0 17 17;" xml:space="preserve">
<style type="text/css">
</style>
<path class="st0" d="M11.9,3.8V2.1c0-0.9-0.8-1.7-1.7-1.7H6.8c-0.9,0-1.7,0.8-1.7,1.7v1.7H1.7C0.8,3.8,0,4.6,0,5.5v9.4
	c0,0.9,0.8,1.7,1.7,1.7h13.6c0.9,0,1.7-0.8,1.7-1.7V5.5c0-0.9-0.8-1.7-1.7-1.7H11.9z M6.8,2.1h3.4v1.7H6.8V2.1z M6,13.2V7.1
	c0-0.3,0.3-0.5,0.6-0.4l5.1,2.7c0.3,0.2,0.3,0.6,0,0.7l-5.1,3.4c-0.1,0-0.1,0.1-0.2,0.1c-0.1,0-0.2,0-0.2,0c-0.1,0-0.1-0.1-0.2-0.2
	C6,13.4,6,13.3,6,13.2z"/>
</svg>
