<?xml version="1.0" encoding="utf-8"?>
<!-- Generator: Adobe Illustrator 28.1.0, SVG Export Plug-In . SVG Version: 6.00 Build 0)  -->
<svg version="1.1" id="Layer_1" xmlns="http://www.w3.org/2000/svg" xmlns:xlink="http://www.w3.org/1999/xlink" x="0px" y="0px"
	 viewBox="0 0 14 14" style="enable-background:new 0 0 14 14;" xml:space="preserve">
<style type="text/css">
	.st0{clip-path:url(#SVGID_00000086674718081775625890000008637939832307551894_);}
</style>
<g>
	<defs>
		<rect id="SVGID_1_" width="14" height="14"/>
	</defs>
	<clipPath id="SVGID_00000027599769936835591330000017693038979679005353_">
		<use xlink:href="#SVGID_1_"  style="overflow:visible;"/>
	</clipPath>
	<g style="clip-path:url(#SVGID_00000027599769936835591330000017693038979679005353_);">
		<path class="st1" d="M6.6,0.1C6.8,0,7.2,0,7.4,0.1l4.7,2.7l0.1,0v0l1.3,0.7c0.3,0.2,0.5,0.6,0.4,1c-0.1,0.4-0.4,0.7-0.8,0.7H0.9
			C0.5,5.3,0.1,5,0,4.6c-0.1-0.4,0.1-0.8,0.4-1l1.3-0.7v0l0.1,0L6.6,0.1z M1.7,6.1h1.8v5.2h1.1V6.1h1.8v5.2h1.3V6.1h1.8v5.2h1.1V6.1
			h1.8v5.4c0,0,0,0,0,0l1.3,0.9c0.3,0.2,0.5,0.6,0.4,1c-0.1,0.4-0.5,0.6-0.8,0.6H0.9c-0.4,0-0.7-0.3-0.8-0.6c-0.1-0.4,0-0.8,0.4-1
			l1.3-0.9c0,0,0,0,0,0L1.7,6.1L1.7,6.1z"/>
	</g>
</g>
</svg>
