<?xml version="1.0" encoding="utf-8"?>
<!-- Generator: Adobe Illustrator 28.1.0, SVG Export Plug-In . SVG Version: 6.00 Build 0)  -->
<svg version="1.1" id="Layer_1" xmlns="http://www.w3.org/2000/svg" xmlns:xlink="http://www.w3.org/1999/xlink" x="0px" y="0px"
	 viewBox="0 0 22 22" style="enable-background:new 0 0 22 22;" xml:space="preserve">
<path d="M11,0C8.8,0,6.7,0.6,4.9,1.9C3.1,3.1,1.7,4.8,0.8,6.8C0,8.8-0.2,11,0.2,13.1c0.4,2.1,1.5,4.1,3,5.6c1.5,1.5,3.5,2.6,5.6,3
	c2.1,0.4,4.3,0.2,6.4-0.6c2-0.8,3.7-2.2,4.9-4.1c1.2-1.8,1.9-3.9,1.9-6.1c0-2.9-1.2-5.7-3.2-7.8C16.7,1.2,13.9,0,11,0z M11,17.8
	c-0.3,0-0.5-0.1-0.7-0.2c-0.2-0.1-0.4-0.3-0.5-0.6c-0.1-0.2-0.1-0.5-0.1-0.7c0-0.2,0.2-0.5,0.3-0.6c0.2-0.2,0.4-0.3,0.6-0.3
	c0.2,0,0.5,0,0.7,0.1c0.2,0.1,0.4,0.3,0.6,0.5c0.1,0.2,0.2,0.5,0.2,0.7c0,0.3-0.1,0.7-0.4,0.9C11.7,17.6,11.3,17.8,11,17.8z
	 M11.8,12.6L11.8,12.6c0,0.3-0.1,0.5-0.2,0.7c-0.2,0.2-0.4,0.2-0.6,0.2c-0.2,0-0.4-0.1-0.6-0.2c-0.2-0.2-0.2-0.4-0.2-0.6v-0.8
	c0-0.2,0.1-0.4,0.2-0.6c0.2-0.2,0.4-0.2,0.6-0.2c1.4,0,2.5-1,2.5-2.1c0-1.2-1.1-2.1-2.5-2.1c-1.4,0-2.5,1-2.5,2.1v0.4
	c0,0.2-0.1,0.4-0.2,0.6c-0.2,0.2-0.4,0.2-0.6,0.2c-0.2,0-0.4-0.1-0.6-0.2C6.9,9.7,6.8,9.5,6.8,9.3V8.9c0-2.1,1.9-3.8,4.2-3.8
	c2.3,0,4.2,1.7,4.2,3.8C15.2,10.7,13.8,12.3,11.8,12.6z"/>
</svg>
