<?xml version="1.0" encoding="utf-8"?>
<!-- Generator: Adobe Illustrator 28.1.0, SVG Export Plug-In . SVG Version: 6.00 Build 0)  -->
<svg version="1.1" id="Layer_1" xmlns="http://www.w3.org/2000/svg" xmlns:xlink="http://www.w3.org/1999/xlink" x="0px" y="0px"
	 viewBox="0 0 17 17" style="enable-background:new 0 0 17 17;" xml:space="preserve">
<style type="text/css">
</style>
<path class="st0" d="M14.2,0c0.2,0,0.5,0.1,0.6,0.2c0.2,0.2,0.3,0.4,0.3,0.6l0,0.1v15.1c0,0.2-0.1,0.5-0.3,0.6
	c-0.2,0.2-0.4,0.3-0.6,0.3c-0.2,0-0.5-0.1-0.7-0.2c-0.2-0.2-0.3-0.4-0.3-0.6l0-0.1v-4.7h-0.9c-0.2,0-0.5-0.1-0.6-0.2
	c-0.2-0.2-0.3-0.4-0.3-0.6l0-0.1V4.7C11.3,2.6,12.8,0,14.2,0z M8.5,0C8.7,0,9,0.1,9.1,0.2c0.2,0.2,0.3,0.4,0.3,0.6l0,0.1v4.7
	c0,0.8-0.3,1.7-0.8,2.3c-0.5,0.7-1.2,1.1-2,1.3v6.7c0,0.2-0.1,0.5-0.3,0.6C6.2,16.9,6,17,5.7,17c-0.2,0-0.5-0.1-0.7-0.2
	c-0.2-0.2-0.3-0.4-0.3-0.6l0-0.1V9.3c-0.8-0.2-1.5-0.6-2-1.3C2.2,7.4,1.9,6.7,1.9,5.9l0-0.2V0.9c0-0.2,0.1-0.5,0.3-0.6
	C2.3,0.1,2.5,0,2.8,0C3,0,3.3,0.1,3.4,0.2c0.2,0.2,0.3,0.4,0.3,0.6l0,0.1v4.7C3.8,6,3.9,6.3,4,6.6c0.2,0.3,0.4,0.5,0.7,0.7V0.9
	c0-0.2,0.1-0.5,0.3-0.6C5.1,0.1,5.4,0,5.6,0c0.2,0,0.5,0.1,0.7,0.2c0.2,0.2,0.3,0.4,0.3,0.6l0,0.1l0,6.4c0.3-0.2,0.5-0.4,0.6-0.6
	c0.2-0.3,0.3-0.5,0.3-0.9l0-0.2V0.9c0-0.3,0.1-0.5,0.3-0.7C8,0.1,8.2,0,8.5,0z"/>
</svg>
