<svg width="19" height="18" viewBox="0 0 19 18" fill="none" xmlns="http://www.w3.org/2000/svg">
<g id="Favorite_fill">
<path id="Vector 15" d="M3.83801 10.4312L9.05247 15.3296L9.05248 15.3296C9.15088 15.422 9.20008 15.4683 9.25051 15.4973C9.40495 15.5862 9.59505 15.5862 9.74949 15.4973C9.79992 15.4683 9.84913 15.422 9.94753 15.3296L15.162 10.4312C16.6291 9.05294 16.8073 6.78495 15.5734 5.19455L15.3413 4.89551C13.8652 2.99294 10.9022 3.31201 9.865 5.48524C9.71849 5.79222 9.28151 5.79222 9.135 5.48524C8.09778 3.31201 5.13479 2.99294 3.65866 4.89551L3.42664 5.19455C2.19271 6.78495 2.37087 9.05294 3.83801 10.4312Z" fill="currentColor" stroke="currentColor" stroke-width="2"/>
</g>
</svg>
