<svg width="18" height="18" viewBox="0 0 18 18" fill="currentColor" xmlns="http://www.w3.org/2000/svg">
<g id="Regroup">
<path id="Vector 9" d="M15 4.5L15.7071 5.20711L16.4142 4.5L15.7071 3.79289L15 4.5ZM2.75 8.25C2.75 8.80228 3.19771 9.25 3.75 9.25C4.30229 9.25 4.75 8.80228 4.75 8.25L2.75 8.25ZM12.7071 8.20711L15.7071 5.20711L14.2929 3.79289L11.2929 6.79289L12.7071 8.20711ZM15.7071 3.79289L12.7071 0.792893L11.2929 2.20711L14.2929 5.20711L15.7071 3.79289ZM15 3.5L7.5 3.5L7.5 5.5L15 5.5L15 3.5ZM7.5 3.5C4.87665 3.5 2.75 5.62665 2.75 8.25L4.75 8.25C4.75 6.73122 5.98122 5.5 7.5 5.5L7.5 3.5Z" fill="currentColor"/>
<path id="Vector 10" d="M3 13.5L2.29289 12.7929L1.58579 13.5L2.29289 14.2071L3 13.5ZM15.25 9.75C15.25 9.19772 14.8023 8.75 14.25 8.75C13.6977 8.75 13.25 9.19772 13.25 9.75L15.25 9.75ZM5.29289 9.79289L2.29289 12.7929L3.70711 14.2071L6.70711 11.2071L5.29289 9.79289ZM2.29289 14.2071L5.29289 17.2071L6.70711 15.7929L3.70711 12.7929L2.29289 14.2071ZM3 14.5L10.5 14.5L10.5 12.5L3 12.5L3 14.5ZM10.5 14.5C13.1234 14.5 15.25 12.3734 15.25 9.75L13.25 9.75C13.25 11.2688 12.0188 12.5 10.5 12.5L10.5 14.5Z" fill="currentColor"/>
</g>
</svg>
