<svg width="26" height="26" viewBox="0 0 26 26" fill="none" xmlns="http://www.w3.org/2000/svg">
<path d="M17.1096 2.86648C17.5051 2.47095 17.9747 2.15719 18.4915 1.94313C19.0083 1.72907 19.5622 1.6189 20.1215 1.6189C20.6809 1.6189 21.2348 1.72907 21.7516 1.94313C22.2684 2.15719 22.738 2.47095 23.1335 2.86648C23.529 3.26202 23.8428 3.73158 24.0568 4.24837C24.2709 4.76516 24.3811 5.31905 24.3811 5.87842C24.3811 6.43779 24.2709 6.99168 24.0568 7.50847C23.8428 8.02526 23.529 8.49482 23.1335 8.89036L21.8676 10.1562L15.8437 4.13236L17.1096 2.86648ZM14.6949 5.28123L4.31761 15.6585C3.71007 16.2664 3.27684 17.0263 3.06311 17.8587L1.64936 23.361C1.6143 23.4979 1.61556 23.6416 1.653 23.7778C1.69045 23.9141 1.76279 24.0382 1.86288 24.138C1.96298 24.2378 2.08736 24.3097 2.22375 24.3467C2.36014 24.3837 2.50382 24.3845 2.64061 24.349L8.14124 22.9369C8.97386 22.7235 9.7338 22.2902 10.3415 21.6824L20.7187 11.3051L14.6949 5.28123Z" fill="white"/>
</svg>
