<?xml version="1.0" encoding="utf-8"?>
<!-- Generator: Adobe Illustrator 28.1.0, SVG Export Plug-In . SVG Version: 6.00 Build 0)  -->
<svg version="1.1" id="Layer_1" xmlns="http://www.w3.org/2000/svg" xmlns:xlink="http://www.w3.org/1999/xlink" x="0px" y="0px"
	 viewBox="0 0 34 34" style="enable-background:new 0 0 34 34;" xml:space="preserve">
<style type="text/css">
	.st0{fill-rule:evenodd;clip-rule:evenodd;fill:#FFFFFF;}
</style>
<path class="st0" d="M13.3,32h7.4c5.2,0,7.8,0,9.7-1.2c0.8-0.5,1.5-1.2,2-2c1.2-1.8,1.2-4.4,1.2-9.5c0-5.1,0-7.7-1.2-9.5
	c-0.5-0.8-1.2-1.5-2-2c-1.2-0.8-2.7-1.1-5-1.2c-1.1,0-2-0.8-2.3-1.9c-0.2-0.8-0.6-1.5-1.2-2C21.3,2.3,20.5,2,19.7,2h-5.4
	c-1.6,0-3.1,1.1-3.4,2.7c-0.2,1.1-1.2,1.9-2.3,1.9C6.3,6.7,4.8,7,3.6,7.8c-0.8,0.5-1.5,1.2-2,2c-1.2,1.8-1.2,4.4-1.2,9.5
	c0,5.1,0,7.7,1.2,9.5c0.5,0.8,1.2,1.5,2,2C5.5,32,8.1,32,13.3,32z M17,12.5c-3.8,0-6.9,3.1-6.9,6.8c0,3.8,3.1,6.8,6.9,6.8
	s6.9-3.1,6.9-6.8C23.9,15.5,20.8,12.5,17,12.5z M17,15.2c-2.3,0-4.2,1.8-4.2,4.1c0,2.3,1.9,4.1,4.2,4.1s4.2-1.8,4.2-4.1
	C21.2,17,19.3,15.2,17,15.2z M24.9,13.8c0-0.8,0.6-1.4,1.4-1.4h1.9c0.8,0,1.4,0.6,1.4,1.4c0,0.4-0.2,0.7-0.4,1
	c-0.3,0.3-0.6,0.4-1,0.4h-1.9c-0.2,0-0.4,0-0.5-0.1s-0.3-0.2-0.4-0.3c-0.1-0.1-0.2-0.3-0.3-0.4C24.9,14.2,24.9,14,24.9,13.8z"/>
</svg>
