<?xml version="1.0" encoding="utf-8"?>
<!-- Generator: Adobe Illustrator 28.1.0, SVG Export Plug-In . SVG Version: 6.00 Build 0)  -->
<svg version="1.1" id="Layer_1" xmlns="http://www.w3.org/2000/svg" xmlns:xlink="http://www.w3.org/1999/xlink" x="0px" y="0px"
	 viewBox="0 0 26 26" style="enable-background:new 0 0 26 26;" xml:space="preserve">
<style type="text/css">
	.st0{fill:#FFFFFF;stroke:#FFFFFF;stroke-width:0.35;stroke-miterlimit:10;}
</style>
<path class="st0" d="M5.7,12.2h16.2c0.2,0,0.4,0.1,0.6,0.2c0.2,0.2,0.2,0.4,0.2,0.6s-0.1,0.4-0.2,0.6c-0.2,0.2-0.4,0.2-0.6,0.2H5.7
	c-0.2,0-0.4-0.1-0.6-0.2C5,13.4,4.9,13.2,4.9,13s0.1-0.4,0.2-0.6C5.3,12.3,5.5,12.2,5.7,12.2z"/>
<path class="st0" d="M6,13l6.7,6.7c0.2,0.2,0.2,0.4,0.2,0.6c0,0.2-0.1,0.4-0.2,0.6c-0.2,0.2-0.4,0.2-0.6,0.2c-0.2,0-0.4-0.1-0.6-0.2
	l-7.3-7.3c-0.1-0.1-0.1-0.2-0.2-0.3c0-0.1-0.1-0.2-0.1-0.3c0-0.1,0-0.2,0.1-0.3c0-0.1,0.1-0.2,0.2-0.3l7.3-7.3
	C11.8,5,12,4.9,12.2,4.9c0.2,0,0.4,0.1,0.6,0.2C12.9,5.3,13,5.5,13,5.7c0,0.2-0.1,0.4-0.2,0.6L6,13z"/>
</svg>
