<svg width="24" height="24" viewBox="0 0 20 20" fill="none" xmlns="http://www.w3.org/2000/svg">
<g id="Send_fill">
<path id="Subtract" fill-rule="evenodd" clip-rule="evenodd" d="M9.62295 12.1048L7.75071 11.4807C5.39749 10.6963 4.22089 10.3041 4.22089 9.58335C4.22089 8.86259 5.39749 8.47039 7.75071 7.68598L15.5139 5.09826C17.1697 4.54633 17.9976 4.27036 18.4346 4.70738C18.8716 5.14439 18.5956 5.97228 18.0437 7.62805L18.0437 7.62807L18.0437 7.62808L15.456 15.3913L15.456 15.3913L15.456 15.3913C14.6716 17.7445 14.2794 18.9211 13.5586 18.9211C12.8378 18.9211 12.4456 17.7445 11.6612 15.3912L11.0372 13.519L15.2241 9.33212C15.6146 8.9416 15.6146 8.30843 15.2241 7.91791C14.8335 7.52738 14.2004 7.52738 13.8098 7.91791L9.62295 12.1048Z" fill="currentColor"/>
</g>
</svg>
