<?xml version="1.0" encoding="utf-8"?>
<!-- Generator: Adobe Illustrator 28.1.0, SVG Export Plug-In . SVG Version: 6.00 Build 0)  -->
<svg version="1.1" id="Layer_1" xmlns="http://www.w3.org/2000/svg" xmlns:xlink="http://www.w3.org/1999/xlink" x="0px" y="0px"
	 viewBox="0 0 20 20" style="enable-background:new 0 0 20 20;" xml:space="preserve">
<path d="M19.7,18.1l-3.3-3.3c-0.2-0.2-0.4-0.2-0.6-0.3c1.2-1.5,2-3.5,2-5.6c0-4.9-4-8.9-8.9-8.9C4,0,0,4,0,8.9c0,4.9,4,8.9,8.9,8.9
	c2.1,0,4.1-0.7,5.6-2c0,0.2,0.1,0.4,0.3,0.6l3.3,3.3c0.2,0.2,0.5,0.3,0.8,0.3c0.3,0,0.6-0.1,0.8-0.3C20.1,19.2,20.1,18.5,19.7,18.1z
	 M8.9,15.6c-3.7,0-6.7-3-6.7-6.7c0-3.7,3-6.7,6.7-6.7c3.7,0,6.7,3,6.7,6.7C15.6,12.6,12.6,15.6,8.9,15.6z"/>
</svg>
