<?xml version="1.0" encoding="utf-8"?>
<!-- Generator: Adobe Illustrator 28.1.0, SVG Export Plug-In . SVG Version: 6.00 Build 0)  -->
<svg version="1.1" id="Layer_1" xmlns="http://www.w3.org/2000/svg" xmlns:xlink="http://www.w3.org/1999/xlink" x="0px" y="0px"
	 viewBox="0 0 20 20" style="enable-background:new 0 0 20 20;" xml:space="preserve">
<g>
	<path d="M10,10c2.8,0,5-2.2,5-5s-2.2-5-5-5S5,2.2,5,5S7.2,10,10,10z M10,2c1.7,0,3,1.3,3,3s-1.3,3-3,3S7,6.7,7,5S8.3,2,10,2z"/>
	<path d="M17.6,16.1C16.9,13,14,11,10.4,11H9.6c-3.6,0-6.6,2-7.3,5.1c-0.1,0.6-0.3,1.2-0.3,1.8C2,18.4,2.2,19,2.5,19.4
		C2.9,19.8,3.4,20,4,20h12c0.6,0,1.1-0.2,1.5-0.6c0.4-0.4,0.5-0.9,0.5-1.5C17.9,17.3,17.8,16.7,17.6,16.1z M4.1,18
		c0.1-0.5,0.1-1,0.3-1.4C4.9,14.1,7.4,13,9.6,13h0.7c2.2,0,4.8,1.1,5.3,3.6c0.1,0.5,0.2,1,0.3,1.4H4.1z"/>
</g>
</svg>
