<?xml version="1.0" encoding="utf-8"?>
<!-- Generator: Adobe Illustrator 28.1.0, SVG Export Plug-In . SVG Version: 6.00 Build 0)  -->
<svg version="1.1" id="Layer_1" xmlns="http://www.w3.org/2000/svg" xmlns:xlink="http://www.w3.org/1999/xlink" x="0px" y="0px"
	 viewBox="0 0 24 24" style="enable-background:new 0 0 24 24;" xml:space="preserve">
<style type="text/css">
	.st0{fill-rule:evenodd;clip-rule:evenodd;fill:#FFFFFF;}
	.st1{fill:#FFFFFF;}
</style>
<g>
	<g>
		<path class="st0" d="M21,6.5H3v3c1.1,0,2,0.9,2,2v4c0,2.8,0,4.2,0.9,5.1s2.3,0.9,5.1,0.9h2c2.8,0,4.2,0,5.1-0.9
			c0.9-0.9,0.9-2.3,0.9-5.1v-4c0-1.1,0.9-2,2-2V6.5z M10.5,11.5c0-0.6-0.4-1-1-1c-0.6,0-1,0.4-1,1v5c0,0.6,0.4,1,1,1
			c0.6,0,1-0.4,1-1V11.5z M15.5,11.5c0-0.6-0.4-1-1-1c-0.6,0-1,0.4-1,1v5c0,0.6,0.4,1,1,1c0.6,0,1-0.4,1-1V11.5z"/>
	</g>
	<g>
		<path class="st1" d="M10.1,4.9c-0.3,0-0.5-0.1-0.7-0.3C9,4.1,9,3.5,9.4,3.1c0.3-0.2,0.6-0.4,1.2-0.5c0.8-0.2,2-0.2,2.8,0
			c0.6,0.1,0.9,0.3,1.2,0.5c0.4,0.4,0.4,1,0,1.4c-0.4,0.4-0.9,0.4-1.3,0.1c0,0-0.1,0-0.3-0.1c-0.6-0.1-1.5-0.1-2.1,0
			c-0.2,0-0.3,0.1-0.3,0.1C10.5,4.8,10.3,4.9,10.1,4.9z M10.7,4.7L10.7,4.7L10.7,4.7z M10.7,4.6C10.7,4.6,10.7,4.6,10.7,4.6
			C10.7,4.6,10.7,4.6,10.7,4.6z M13.2,4.6C13.2,4.6,13.2,4.6,13.2,4.6C13.2,4.6,13.2,4.6,13.2,4.6z"/>
	</g>
</g>
</svg>
